<svg xmlns="http://www.w3.org/2000/svg" xmlns:xlink="http://www.w3.org/1999/xlink" viewBox="0 0 48 48" version="1.1">
    <g id="surface1">
        <path style=" fill:#2196F3;" d="M 39 6 L 9 6 C 7.34375 6 6 7.34375 6 9 L 6 42 L 14.554688 34 L 39 34 C 40.65625 34 42 32.65625 42 31 L 42 9 C 42 7.34375 40.65625 6 39 6 Z "></path>
        <path style=" fill:#E3F2FD;" d="M 22.6875 23.460938 C 22.6875 22.328125 22.824219 21.429688 23.101563 20.761719 C 23.378906 20.089844 23.886719 19.429688 24.621094 18.78125 C 25.359375 18.132813 25.851563 17.601563 26.09375 17.195313 C 26.339844 16.785156 26.460938 16.355469 26.460938 15.902344 C 26.460938 14.539063 25.824219 13.855469 24.554688 13.855469 C 23.953125 13.855469 23.472656 14.039063 23.109375 14.40625 C 22.746094 14.773438 22.558594 15.28125 22.542969 15.929688 L 19 15.929688 C 19.015625 14.386719 19.519531 13.179688 20.507813 12.308594 C 21.496094 11.4375 22.84375 11 24.554688 11 C 26.28125 11 27.617188 11.414063 28.574219 12.242188 C 29.523438 13.070313 30 14.234375 30 15.746094 C 30 16.433594 29.847656 17.078125 29.535156 17.6875 C 29.226563 18.300781 28.683594 18.976563 27.910156 19.71875 L 26.925781 20.648438 C 26.304688 21.238281 25.949219 21.929688 25.859375 22.722656 L 25.8125 23.460938 Z M 22.332031 27.167969 C 22.332031 26.628906 22.519531 26.1875 22.890625 25.835938 C 23.261719 25.484375 23.734375 25.308594 24.3125 25.308594 C 24.890625 25.308594 25.363281 25.484375 25.734375 25.835938 C 26.105469 26.1875 26.289063 26.628906 26.289063 27.167969 C 26.289063 27.695313 26.109375 28.136719 25.746094 28.480469 C 25.382813 28.824219 24.90625 29 24.3125 29 C 23.714844 29 23.238281 28.824219 22.875 28.480469 C 22.515625 28.136719 22.332031 27.695313 22.332031 27.167969 Z "></path>
    </g>
</svg>