<svg xmlns="http://www.w3.org/2000/svg" viewBox="0 0 36 20.42">
    <defs>
        <style>.member { fill: #6fbe10; }</style>
    </defs>
    <g>
        <path class="member"
                  d="M25.52,15.4c-2.93-.68-5.66-1.27-4.34-3.76C25.2,4.06,22.25,0,18,0s-7.21,4.21-3.18,11.64c1.36,2.51-1.47,3.1-4.34,3.76-2.37.55-2.67,1.66-2.7,3.55a1.46,1.46,0,0,0,1.47,1.47h17.5a1.47,1.47,0,0,0,1.47-1.47c0-1.89-.33-3-2.7-3.55"/>
        <path class="member"
                  d="M7.33,16.07a4.37,4.37,0,0,1,2.91-1.75l.18,0,.92-.21c-1.14-.43-1.78-1-1.13-2.28C13.25,6,11,2.94,7.78,2.94s-5.49,3.2-2.42,8.85c1,1.91-1.12,2.36-3.3,2.86-1.8.41-2,1.26-2.06,2.7a1.11,1.11,0,0,0,1.12,1.12H6.69a4.67,4.67,0,0,1,.64-2.4"/>
        <path class="member"
                  d="M33.94,14.65c-2.23-.51-4.3-1-3.3-2.86,3.06-5.77.81-8.85-2.42-8.85s-5.48,3.2-2.42,8.85c.66,1.23,0,1.85-1.13,2.28l1,.23.11,0a4.37,4.37,0,0,1,2.91,1.75,4.71,4.71,0,0,1,.64,2.4h5.57A1.12,1.12,0,0,0,36,17.35c0-1.44-.26-2.29-2.06-2.7"/>
    </g>
</svg>