<svg xmlns="http://www.w3.org/2000/svg" viewBox="0 0 20.8754 21.4978">
    <defs>
        <clipPath id="clip-path" transform="translate(-454.0003 -707.2502)">
            <rect x="41" y="38.25" width="1640" height="2510" style="fill: none"/>
        </clipPath>
    </defs>
    <title>search</title>
    <g id="search">
        <g style="clip-path: url(#clip-path)">
            <path d="M466.9249,708.6622a6.4463,6.4463,0,0,0-4.655,1.9861,6.9318,6.9318,0,0,0,0,9.59,6.4508,6.4508,0,0,0,9.31,0,6.9241,6.9241,0,0,0,0-9.59,6.4479,6.4479,0,0,0-4.655-1.9861m0,14.974a7.7854,7.7854,0,0,1-5.625-2.4,8.3665,8.3665,0,0,1,0-11.5861,7.7917,7.7917,0,0,1,11.25,0,8.3776,8.3776,0,0,1,0,11.5861,7.7855,7.7855,0,0,1-5.625,2.4" transform="translate(-454.0003 -707.2502)" style="fill: #999"/>
        </g>
        <polygon points="1.616 21.498 0 19.834 5.83 13.829 7.446 15.493 1.616 21.498" style="fill: #999"/>
    </g>
</svg>
